<svg xmlns="http://www.w3.org/2000/svg" viewBox="0 0 594.57 177.02"><g id="Calque_2" data-name="Calque 2"><g id="Calque_1-2" data-name="Calque 1"><rect width="594.57" height="177.02" style="fill:#1f1b3e"></rect><path d="M55.74,80.41a.82.82,0,0,0-.66-.47.81.81,0,0,0-.75.34L36.59,104.66a.83.83,0,0,0-.06.87L48.79,129a.82.82,0,0,0,.66.44h.07a.82.82,0,0,0,.66-.33L67.41,106.3a.82.82,0,0,0,.09-.85Z" style="fill:#fff"></path><path d="M110.08,47.8a.82.82,0,0,0-.75-.48H109a.83.83,0,0,0-.68.35L92.46,70.51a.84.84,0,0,0-.07.81l26.06,57.82a.83.83,0,0,0,.75.49c.07,0,6.84.06,13.53.07h3.21c2.46,0,4.5,0,6.1,0,1.35,0,2.39,0,3.1-.06,1.26,0,1.84-.06,2-.78a.84.84,0,0,0-.3-.79C145,125.4,123.93,78.78,110.08,47.8Z" style="fill:#fff"></path><path d="M92.32,85.33l-34.06-11L46.69,48.89a.8.8,0,0,1,.05-.78.84.84,0,0,1,.7-.38H74.08a.79.79,0,0,1,.73.48Z" style="fill:#fff"></path><path d="M98.47,98.39Q81.58,94.06,64.9,88.9L58.26,74.33l34.06,11Z" style="fill:#31b7bc"></path><path d="M101.72,106.3,84.55,129.19a.78.78,0,0,1-.65.32h-.08a.83.83,0,0,1-.67-.47L64.9,88.9q16.68,5.17,33.57,9.49l3.34,7.07A.82.82,0,0,1,101.72,106.3Z" style="fill:#63c3d1"></path><path d="M144.29,56.16a.62.62,0,0,0-.39-.37l-26.13-8.45a.63.63,0,0,0-.66.19.61.61,0,0,0-.1.68l4.48,9.31c8.68,2.72,17.42,5.17,26.22,7.42Z" style="fill:#eb5769"></path><path d="M147.71,64.94c-8.8-2.25-17.54-4.7-26.22-7.42l16.16,35.81a.62.62,0,0,0,.56.36l13.4-18a.63.63,0,0,0,.07-.58Z" style="fill:#e7344c"></path><line x1="177.39" y1="48.28" x2="177.39" y2="128.74" style="fill:none;stroke:#fff;stroke-linecap:round;stroke-linejoin:round;stroke-width:1.446178853238288px"></line><path d="M203,98.21V80.43a1.21,1.21,0,0,1,1.19-1.23,1.24,1.24,0,0,1,1.23,1.08l.22,1.67a7.73,7.73,0,0,1,5.67-2.75,5.23,5.23,0,0,1,5.09,3,8.63,8.63,0,0,1,6-3c4.16,0,5.93,3,5.93,6.79V98.21a1.45,1.45,0,0,1-1.45,1.44,1.43,1.43,0,0,1-1.44-1.37V86.68c0-3.4-1.56-4.63-4-4.63A6.8,6.8,0,0,0,217,84.11a10.25,10.25,0,0,1,.18,1.88V98.21a1.45,1.45,0,0,1-1.44,1.44,1.39,1.39,0,0,1-1.45-1.37V86.68c0-3.4-1.34-4.63-3.94-4.63a6.65,6.65,0,0,0-4.44,2.1V98.21a1.45,1.45,0,0,1-2.89,0Z" style="fill:#fff"></path><path d="M233.51,74.68a2.06,2.06,0,1,1,2.06,2.06A2,2,0,0,1,233.51,74.68Zm.58,23.53V80.65a1.45,1.45,0,1,1,2.89,0V98.21a1.45,1.45,0,0,1-2.89,0Z" style="fill:#fff"></path><path d="M244.39,93.29V82h-2.5a1.16,1.16,0,0,1,0-2.31l2.6-.22.21-3a1.26,1.26,0,0,1,1.3-1.3,1.3,1.3,0,0,1,1.31,1.41v2.89h4.44A1.25,1.25,0,0,1,253,80.75,1.28,1.28,0,0,1,251.72,82h-4.44V93.65c0,2.14.61,3.15,3,3.15a18.42,18.42,0,0,0,2-.22,1.23,1.23,0,0,1,1.26,1.27A1.18,1.18,0,0,1,252.8,99a7.51,7.51,0,0,1-2.89.47C245.76,99.47,244.39,97.59,244.39,93.29Z" style="fill:#fff"></path><path d="M257.21,98.21V73.42a1.45,1.45,0,1,1,2.89,0v8.27a8,8,0,0,1,5.67-2.49c4.34,0,6.07,3,6.07,6.79V98.21a1.45,1.45,0,0,1-2.89,0V86.68c0-3.4-1.52-4.63-4.15-4.63a7.39,7.39,0,0,0-4.7,2.1v14a1.45,1.45,0,1,1-2.89,0Z" style="fill:#fff"></path><path d="M277,74.68a2.06,2.06,0,1,1,2.06,2.06A2,2,0,0,1,277,74.68Zm.58,23.53V80.65a1.45,1.45,0,1,1,2.89,0V98.21a1.45,1.45,0,0,1-2.89,0Z" style="fill:#fff"></path><path d="M285.38,92.79V86.72c0-4.59,2.32-7.52,7.08-7.52s7,2.82,7,7.52v2.45a1.29,1.29,0,0,1-1.33,1.27h-9.87v3c0,1.95,1.16,3.58,4.38,3.58a7,7,0,0,0,4.22-1.16,1.39,1.39,0,0,1,.8-.25,1.22,1.22,0,0,1,1.23,1.3,1.28,1.28,0,0,1-.54,1,9.59,9.59,0,0,1-5.71,1.77C287.8,99.65,285.38,97.09,285.38,92.79Zm11.28-4.74V86.93c0-3.39-1.16-5.06-4.2-5.06s-4.19,1.67-4.19,5.06v1.12Z" style="fill:#fff"></path><path d="M304,92.86V80.57a1.43,1.43,0,0,1,1.44-1.37,1.45,1.45,0,0,1,1.45,1.45V92.17c0,3.4,1.48,4.63,4.08,4.63a7.38,7.38,0,0,0,4.59-2.1V80.57A1.41,1.41,0,0,1,317,79.2a1.45,1.45,0,0,1,1.45,1.45V98.42a1.21,1.21,0,0,1-1.19,1.23A1.22,1.22,0,0,1,316,98.53l-.22-1.63A8.28,8.28,0,0,1,310,99.65C305.68,99.65,304,96.62,304,92.86Z" style="fill:#fff"></path><path d="M322.52,98.17a1.58,1.58,0,0,1,.21-.76l4.92-8.09L323,81.55a1.7,1.7,0,0,1-.29-.87,1.44,1.44,0,0,1,1.48-1.48,1.62,1.62,0,0,1,1.37.94l3.69,6.61h.14l3.9-6.61a1.64,1.64,0,0,1,1.41-.94,1.48,1.48,0,0,1,1.45,1.48,1.8,1.8,0,0,1-.29.87l-4.73,7.62,5,8.24a1.58,1.58,0,0,1,.22.76,1.52,1.52,0,0,1-1.48,1.48,1.57,1.57,0,0,1-1.12-.5,1.9,1.9,0,0,1-.33-.47l-3.86-7h-.15l-3.94,7a1.9,1.9,0,0,1-.32.47,1.6,1.6,0,0,1-1.12.5A1.51,1.51,0,0,1,322.52,98.17Z" style="fill:#fff"></path><path d="M350,98.21V80.43a1.21,1.21,0,0,1,1.19-1.23,1.24,1.24,0,0,1,1.23,1.08l.22,1.67a7.73,7.73,0,0,1,5.67-2.75,5.26,5.26,0,0,1,5.1,3,8.6,8.6,0,0,1,6-3c4.16,0,5.93,3,5.93,6.79V98.21a1.45,1.45,0,0,1-1.45,1.44,1.43,1.43,0,0,1-1.44-1.37V86.68c0-3.4-1.55-4.63-4-4.63A6.78,6.78,0,0,0,364,84.11a11.21,11.21,0,0,1,.18,1.88V98.21a1.45,1.45,0,0,1-1.45,1.44,1.4,1.4,0,0,1-1.45-1.37V86.68c0-3.4-1.33-4.63-3.93-4.63a6.66,6.66,0,0,0-4.45,2.1V98.21a1.45,1.45,0,0,1-2.89,0Z" style="fill:#31b7bc"></path><path d="M380.06,92.79V86.72c0-4.59,2.31-7.52,7.08-7.52s7,2.82,7,7.52v2.45a1.3,1.3,0,0,1-1.34,1.27H383v3c0,1.95,1.15,3.58,4.37,3.58a7.05,7.05,0,0,0,4.23-1.16,1.36,1.36,0,0,1,.79-.25,1.22,1.22,0,0,1,1.23,1.3,1.25,1.25,0,0,1-.54,1,9.54,9.54,0,0,1-5.71,1.77C382.48,99.65,380.06,97.09,380.06,92.79Zm11.27-4.74V86.93c0-3.39-1.15-5.06-4.19-5.06S383,83.54,383,86.93v1.12Z" style="fill:#31b7bc"></path><path d="M400.47,93.29V82H398a1.16,1.16,0,0,1,0-2.31l2.6-.22.22-3a1.25,1.25,0,0,1,1.3-1.3,1.3,1.3,0,0,1,1.3,1.41v2.89h4.44A1.24,1.24,0,0,1,409,80.75,1.28,1.28,0,0,1,407.8,82h-4.44V93.65c0,2.14.61,3.15,3,3.15a18.46,18.46,0,0,0,2-.22,1.24,1.24,0,0,1,1.27,1.27,1.19,1.19,0,0,1-.76,1.15,7.54,7.54,0,0,1-2.89.47C401.84,99.47,400.47,97.59,400.47,93.29Z" style="fill:#31b7bc"></path><path d="M412.53,93.94c0-5.85,6.54-7.48,11.31-7.48V85.27c0-2-1-3.4-4.19-3.4a11.11,11.11,0,0,0-4.26.87,2,2,0,0,1-.62.15,1.27,1.27,0,0,1-.58-2.39,10.88,10.88,0,0,1,5.46-1.3c4.84,0,7.08,2.39,7.08,6.68V98.46a1.21,1.21,0,0,1-1.22,1.19,1.18,1.18,0,0,1-1.2-1.08l-.21-1.3a6.56,6.56,0,0,1-5.42,2.38C414.77,99.65,412.53,97.19,412.53,93.94Zm11.35.51V88.78c-3.9,0-8.46,1-8.46,5.16,0,2.17,1.7,3.36,3.73,3.36A5,5,0,0,0,423.88,94.45Z" style="fill:#31b7bc"></path><path d="M432.33,98.21V73.42A1.41,1.41,0,0,1,433.77,72a1.45,1.45,0,0,1,1.45,1.45V98.21a1.45,1.45,0,0,1-2.89,0Z" style="fill:#31b7bc"></path><path d="M450.28,105.5V80.36a1.2,1.2,0,0,1,1.19-1.16,1.26,1.26,0,0,1,1.2.9l.43,1.3a7.16,7.16,0,0,1,5.06-2.2c4.3,0,6.57,2.78,6.57,7.52v5.42c0,4.73-2.27,7.51-6.57,7.51a7,7,0,0,1-5-2.2v8a1.45,1.45,0,1,1-2.89,0Zm11.56-13.58v-5c0-3.39-1.19-5.06-4.33-5.06a6.2,6.2,0,0,0-4.34,1.92V95.06A6.2,6.2,0,0,0,457.51,97C460.65,97,461.84,95.32,461.84,91.92Z" style="fill:#e7344c"></path><path d="M469.61,98.21V80.39a1.2,1.2,0,0,1,1.19-1.19A1.26,1.26,0,0,1,472,80.28l.21,1.81a7.31,7.31,0,0,1,5.57-2.89c.94,0,1.7.47,1.7,1.41A1.36,1.36,0,0,1,478.17,82a6.6,6.6,0,0,0-5.67,2.42V98.21a1.45,1.45,0,0,1-2.89,0Z" style="fill:#e7344c"></path><path d="M481.71,92.14V86.72c0-4.63,2.31-7.52,7.22-7.52s7.23,2.78,7.23,7.52v5.42c0,4.73-2.2,7.51-7.23,7.51S481.71,96.76,481.71,92.14Zm11.56-.22v-5c0-3.39-1.16-5.06-4.34-5.06s-4.33,1.67-4.33,5.06v5c0,3.4,1.15,5.06,4.33,5.06S493.27,95.32,493.27,91.92Z" style="fill:#e7344c"></path><path d="M502.66,93.29V82h-2.5a1.16,1.16,0,0,1,0-2.31l2.6-.22.22-3a1.25,1.25,0,0,1,1.3-1.3,1.3,1.3,0,0,1,1.3,1.41v2.89H510a1.24,1.24,0,0,1,1.23,1.26A1.28,1.28,0,0,1,510,82h-4.44V93.65c0,2.14.61,3.15,3,3.15a18.46,18.46,0,0,0,2-.22,1.24,1.24,0,0,1,1.27,1.27,1.19,1.19,0,0,1-.76,1.15,7.54,7.54,0,0,1-2.89.47C504,99.47,502.66,97.59,502.66,93.29Z" style="fill:#e7344c"></path><path d="M515.12,92.79V86.72c0-4.59,2.31-7.52,7.08-7.52s7,2.82,7,7.52v2.45a1.3,1.3,0,0,1-1.34,1.27H518v3c0,1.95,1.16,3.58,4.37,3.58a7,7,0,0,0,4.23-1.16,1.38,1.38,0,0,1,.79-.25,1.22,1.22,0,0,1,1.23,1.3,1.25,1.25,0,0,1-.54,1,9.54,9.54,0,0,1-5.71,1.77C517.54,99.65,515.12,97.09,515.12,92.79Zm11.27-4.74V86.93c0-3.39-1.15-5.06-4.19-5.06S518,83.54,518,86.93v1.12Z" style="fill:#e7344c"></path><path d="M533,92.14V86.72c0-4.63,2.31-7.52,7.23-7.52a6.6,6.6,0,0,1,5.63,2.46,1.48,1.48,0,0,1,.29.83,1.29,1.29,0,0,1-1.3,1.26,1.32,1.32,0,0,1-1.05-.54,4.6,4.6,0,0,0-3.57-1.34c-3.18,0-4.34,1.67-4.34,5.06v5c0,3.4,1.16,5.06,4.34,5.06a4.39,4.39,0,0,0,3.61-1.34,1.36,1.36,0,0,1,1-.51,1.3,1.3,0,0,1,1.3,1.3,1.33,1.33,0,0,1-.32.84c-1,1.41-3,2.38-5.6,2.38C535.31,99.65,533,96.76,533,92.14Z" style="fill:#e7344c"></path><path d="M551.78,93.29V82h-2.49a1.16,1.16,0,0,1,0-2.31l2.61-.22.21-3a1.26,1.26,0,0,1,1.3-1.3,1.3,1.3,0,0,1,1.3,1.41v2.89h4.45a1.25,1.25,0,0,1,1.23,1.26A1.28,1.28,0,0,1,559.12,82h-4.45V93.65c0,2.14.62,3.15,3,3.15a18.42,18.42,0,0,0,2-.22A1.23,1.23,0,0,1,561,97.85,1.18,1.18,0,0,1,560.2,99a7.51,7.51,0,0,1-2.89.47C553.16,99.47,551.78,97.59,551.78,93.29Z" style="fill:#e7344c"></path></g></g></svg>